<svg xmlns="http://www.w3.org/2000/svg" viewBox="0 0 128 128" width="128" height="128">
  <style>
    @media (prefers-color-scheme: dark) {
      g {
        fill: white;
      }
    }

    @media (prefers-color-scheme: light) {
      g {
        fill: black;
      }
    }
  </style>
  <g transform="translate(16, 16)">
    <path d="M12 28h16v40H12z M4 36h6v24H4z" />

    <path d="M68 28h16v40H68z M86 36h6v24H86z" />

    <rect x="28" y="44" width="40" height="8" />

    <path
      d="M48 24c-5.52 0-10 4.48-10 10 0 2.12.66 4.07 1.78 5.69L44 44h8l4.22-4.31c1.12-1.62 1.78-3.57 1.78-5.69 0-5.52-4.48-10-10-10z" />

    <path d="M48 12C31.43 12 18 25.43 18 42h6c0-13.23 10.77-24 24-24s24 10.77 24 24h6c0-16.57-13.43-32-32-32z" />
    <path d="M48 84c16.57 0 32-13.43 32-32h-6c0 13.23-10.77 24-24 24s-24-10.77-24-24h-6c0 16.57 13.43 32 32 32z" />

    <circle cx="48" cy="4" r="3" />
    <circle cx="48" cy="92" r="3" />
  </g>
</svg>